Coordinates
version=1
nRows=8
nColumns=40
inDegrees=yes

Units are S.I. units (second, meters, Newtons, ...)
If the header above contains a line with 'inDegrees', this indicates whether rotational values are in degrees (yes) or radians (no).

endheader
time	pelvis_tilt	pelvis_list	pelvis_rotation	pelvis_tx	pelvis_ty	pelvis_tz	hip_flexion_r	hip_adduction_r	hip_rotation_r	knee_angle_r	knee_angle_r_beta	ankle_angle_r	subtalar_angle_r	mtp_angle_r	hip_flexion_l	hip_adduction_l	hip_rotation_l	knee_angle_l	knee_angle_l_beta	ankle_angle_l	subtalar_angle_l	mtp_angle_l	lumbar_extension	lumbar_bending	lumbar_rotation	arm_flex_r	arm_add_r	arm_rot_r	elbow_flex_r	pro_sup_r	wrist_flex_r	wrist_dev_r	arm_flex_l	arm_add_l	arm_rot_l	elbow_flex_l	pro_sup_l	wrist_flex_l	wrist_dev_l
      1.62500000	    -37.05467443	      4.72318080	     -3.94795616	     -0.43812844	      0.49270237	     -0.93457785	    119.39737503	    -20.88200801	      6.79368277	    111.61608607	      1.94806820	     33.27545447	      0.00000000	      0.00000000	    115.23184458	    -32.42307488	      3.33705242	    113.08256092	      1.97366301	     34.39408815	      0.00000000	      0.00000000	    -23.58130874	     -6.99363283	      3.10673146	    -25.73651108	    -49.84446296	     37.69386233	     98.17944440	     87.93844723	      0.00000000	      0.00000000	    -13.54746210	    -53.00020082	     50.58585336	     94.17929553	     87.91051519	      0.00000000	      0.00000000
      1.63000000	    -37.05237260	      4.76598608	     -3.86192759	     -0.43801186	      0.49288487	     -0.93471141	    119.40544432	    -20.93136322	      6.89584195	    111.60905744	      1.94794553	     33.27579052	      0.00000000	      0.00000000	    115.13844370	    -32.34943835	      3.21523354	    113.04993382	      1.97309356	     34.42553088	      0.00000000	      0.00000000	    -23.56945955	     -7.04236576	      3.04817649	    -25.95635033	    -49.95310290	     37.68194635	     98.48436715	     87.77423287	      0.00000000	      0.00000000	    -13.31371898	    -53.06914253	     50.84444617	     94.13829242	     87.82991534	      0.00000000	      0.00000000
      1.63500000	    -37.02069939	      4.85145474	     -3.84825796	     -0.43789750	      0.49306252	     -0.93480821	    119.40931875	    -20.90331568	      7.00353687	    111.59998961	      1.94778726	     33.23442726	      0.00000000	      0.00000000	    115.00572787	    -32.36180480	      3.07023723	    113.03194297	      1.97277956	     34.44144454	      0.00000000	      0.00000000	    -23.58334768	     -7.11162685	      4.09296595	    -28.11593868	    -49.10545811	     35.20741099	     98.34717703	     87.80401097	      0.00000000	      0.00000000	    -10.16523749	    -53.50094305	     54.38318163	     93.93026186	     87.78660664	      0.00000000	      0.00000000
      1.64000000	    -37.00498173	      4.87021484	     -3.74855641	     -0.43765963	      0.49320005	     -0.93488104	    119.41326268	    -20.99212651	      7.09689278	    111.64060483	      1.94849613	     33.28029032	      0.00000000	      0.00000000	    114.92340925	    -32.28326327	      2.98565019	    113.04261655	      1.97296585	     34.32453682	      0.00000000	      0.00000000	    -23.51651101	     -7.15917964	      3.27013295	    -26.47637785	    -49.62956134	     37.08920162	     98.26236809	     87.56581969	      0.00000000	      0.00000000	    -11.47461777	    -53.36519978	     53.20746493	     93.95407890	     87.82389940	      0.00000000	      0.00000000
      1.64500000	    -37.09793465	      4.75468451	     -3.79116417	     -0.43778493	      0.49317233	     -0.93481550	    119.39615289	    -20.94259808	      6.94105503	    111.58568807	      1.94753765	     33.33176684	      0.00000000	      0.00000000	    115.12068143	    -32.26898740	      3.17629567	    113.02201206	      1.97260624	     34.34129439	      0.00000000	      0.00000000	    -23.47804125	     -7.07178521	      3.24690127	    -26.37871649	    -49.70767906	     37.09154318	     98.29232975	     87.77395029	      0.00000000	      0.00000000	    -12.49488723	    -53.17349501	     51.75281755	     94.08730109	     87.81216682	      0.00000000	      0.00000000
      1.65000000	    -37.09885337	      4.76039582	     -3.66800215	     -0.43766239	      0.49320807	     -0.93506966	    119.40955027	    -21.06450719	      7.01597581	    111.58459501	      1.94751858	     33.34505845	      0.00000000	      0.00000000	    115.06749082	    -32.13689924	      3.08807072	    113.02260700	      1.97261662	     34.37131850	      0.00000000	      0.00000000	    -23.49326309	     -7.06212412	      2.94432081	    -26.26080762	    -49.66596020	     36.99541521	     98.21102229	     87.80552815	      0.00000000	      0.00000000	    -13.11078144	    -53.07514699	     50.98755424	     94.22186650	     87.81408599	      0.00000000	      0.00000000
      1.65500000	    -37.06873607	      4.88452333	     -3.85061267	     -0.43757789	      0.49333983	     -0.93470866	    119.39728979	    -20.79476050	      7.08351745	    111.57718318	      1.94738922	     33.33504879	      0.00000000	      0.00000000	    114.97503819	    -32.37534403	      3.03799932	    113.01421466	      1.97247015	     34.40416121	      0.00000000	      0.00000000	    -23.44220837	     -7.27887000	      4.27868898	    -28.87364309	    -48.71458126	     34.11329472	     98.31380951	     87.77831846	      0.00000000	      0.00000000	     -9.52099847	    -53.63209519	     54.95530977	     94.03711333	     87.77867265	      0.00000000	      0.00000000
      1.66000000	    -37.12559908	      4.83289210	     -3.85401738	     -0.43758114	      0.49331594	     -0.93461651	    119.40029490	    -20.77831498	      7.01698094	    111.56062149	      1.94710016	     33.37429476	      0.00000000	      0.00000000	    115.06879702	    -32.36600260	      3.12137739	    113.00991664	      1.97239513	     34.42414259	      0.00000000	      0.00000000	    -23.37682593	     -7.27942374	      3.58711594	    -27.40688757	    -49.20660685	     35.64930489	     98.21334233	     87.76999561	      0.00000000	      0.00000000	    -11.62112527	    -53.39972078	     52.62959431	     94.20153501	     87.78980941	      0.00000000	      0.00000000
